<svg width="19" height="18" viewBox="0 0 19 18" fill="none" xmlns="http://www.w3.org/2000/svg">
<g id="instagram">
<path id="Vector" d="M13.1083 1.48926H5.6611C3.60461 1.48926 1.9375 3.15637 1.9375 5.21286V12.6601C1.9375 14.7166 3.60461 16.3837 5.6611 16.3837H13.1083C15.1648 16.3837 16.8319 14.7166 16.8319 12.6601V5.21286C16.8319 3.15637 15.1648 1.48926 13.1083 1.48926Z" stroke="white" stroke-width="0.714932" stroke-linecap="round" stroke-linejoin="round"/>
<path id="Vector_2" d="M12.364 8.46723C12.4559 9.08702 12.3501 9.72001 12.0615 10.2762C11.7729 10.8323 11.3163 11.2833 10.7566 11.565C10.197 11.8467 9.56272 11.9448 8.94411 11.8452C8.3255 11.7457 7.75403 11.4536 7.31097 11.0106C6.86792 10.5675 6.57586 9.99605 6.47631 9.37744C6.37677 8.75882 6.47482 8.12458 6.75652 7.5649C7.03822 7.00523 7.48922 6.54863 8.04538 6.26005C8.60153 5.97147 9.23453 5.86561 9.85432 5.95752C10.4865 6.05127 11.0718 6.34586 11.5238 6.79779C11.9757 7.24972 12.2703 7.83502 12.364 8.46723Z" stroke="white" stroke-width="0.714932" stroke-linecap="round" stroke-linejoin="round"/>
<path id="Vector_3" d="M13.4805 4.84082H13.4892" stroke="white" stroke-width="0.714932" stroke-linecap="round" stroke-linejoin="round"/>
</g>
</svg>
