<svg width="19" height="18" viewBox="0 0 19 18" fill="none" xmlns="http://www.w3.org/2000/svg">
<g id="twitter" clip-path="url(#clip0_3_13125)">
<path id="Vector" d="M18.0235 2.23405C17.3104 2.73709 16.5207 3.12184 15.6851 3.37347C15.2366 2.85776 14.6405 2.49224 13.9775 2.32634C13.3144 2.16044 12.6165 2.20217 11.9779 2.44589C11.3394 2.68961 10.7911 3.12355 10.4072 3.68903C10.0234 4.2545 9.82242 4.92423 9.83158 5.60764V6.35236C8.52283 6.38629 7.226 6.09604 6.0566 5.50743C4.88719 4.91883 3.88149 4.05015 3.12909 2.97877C3.12909 2.97877 0.150206 9.68126 6.8527 12.6601C5.31896 13.7012 3.49189 14.2233 1.63965 14.1496C8.34214 17.8732 16.5341 14.1496 16.5341 5.5853C16.5334 5.37786 16.5134 5.17093 16.4745 4.96718C17.2346 4.21761 17.7709 3.27123 18.0235 2.23405V2.23405Z" stroke="white" stroke-width="0.714932" stroke-linecap="round" stroke-linejoin="round"/>
</g>
<defs>
<clipPath id="clip0_3_13125">
<rect width="17.8733" height="17.8733" fill="white" transform="translate(0.895508)"/>
</clipPath>
</defs>
</svg>
