<svg width="18" height="18" viewBox="0 0 18 18" fill="none" xmlns="http://www.w3.org/2000/svg">
<g id="youtube" clip-path="url(#clip0_3_13127)">
<path id="Vector" d="M16.7859 4.78123C16.6974 4.42779 16.5172 4.10396 16.2635 3.84244C16.0099 3.58092 15.6917 3.39097 15.3411 3.29179C14.0602 2.979 8.9365 2.979 8.9365 2.979C8.9365 2.979 3.81282 2.979 2.5319 3.32158C2.18132 3.42076 1.86312 3.61071 1.60945 3.87223C1.35577 4.13375 1.1756 4.45758 1.08714 4.81102C0.852711 6.11097 0.73804 7.42969 0.744566 8.75059C0.73621 10.0814 0.850888 11.4102 1.08714 12.72C1.18467 13.0624 1.36887 13.3739 1.62195 13.6244C1.87504 13.8749 2.18845 14.0558 2.5319 14.1498C3.81282 14.4924 8.9365 14.4924 8.9365 14.4924C8.9365 14.4924 14.0602 14.4924 15.3411 14.1498C15.6917 14.0506 16.0099 13.8607 16.2635 13.5992C16.5172 13.3376 16.6974 13.0138 16.7859 12.6604C17.0185 11.3702 17.1331 10.0615 17.1284 8.75059C17.1368 7.41974 17.0221 6.09097 16.7859 4.78123V4.78123Z" stroke="white" stroke-width="0.714932" stroke-linecap="round" stroke-linejoin="round"/>
<path id="Vector_2" d="M7.26074 11.1854L11.5429 8.75018L7.26074 6.31494V11.1854Z" stroke="white" stroke-width="0.714932" stroke-linecap="round" stroke-linejoin="round"/>
</g>
<defs>
<clipPath id="clip0_3_13127">
<rect width="17.8733" height="17.8733" fill="white"/>
</clipPath>
</defs>
</svg>
