<svg width="25" height="24" viewBox="0 0 25 24" fill="none" xmlns="http://www.w3.org/2000/svg">
<g id="arcticons:budgetwatch">
<path id="Vector" d="M17.0385 9.91493C16.8442 8.36298 17.0669 6.7873 17.6835 5.34993C17.7735 5.16993 17.9435 4.95993 17.7735 4.76493C17.6035 4.56993 17.3685 4.70493 17.1685 4.76493C16.6529 4.91493 16.1739 5.17006 15.7617 5.51427C15.3495 5.85848 15.013 6.2843 14.7735 6.76493C14.6385 6.99993 14.5435 7.23493 14.1785 7.18493C12.9466 7.02418 11.7006 7.0007 10.4635 7.11493C9.53576 7.17084 8.62984 7.41946 7.80351 7.84493C6.52935 8.54629 5.53013 9.6583 4.96851 10.9999C4.94125 10.9339 4.92113 10.8652 4.90851 10.7949C4.76851 10.1449 4.40851 9.79493 3.84351 9.87993H3.83351C3.70458 9.89616 3.58033 9.93853 3.46834 10.0044C3.35636 10.0704 3.25901 10.1584 3.18225 10.2633C3.10549 10.3681 3.05093 10.4875 3.02191 10.6142C2.9929 10.7409 2.99004 10.8721 3.01351 10.9999C2.98333 11.5532 3.08764 12.1056 3.31752 12.6097C3.5474 13.1139 3.89601 13.5549 4.33351 13.8949C4.4928 14.004 4.60663 14.1676 4.65351 14.3549C4.94739 15.5921 5.62674 16.7039 6.59351 17.5299C6.76827 17.673 6.90526 17.8568 6.99243 18.0651C7.07961 18.2735 7.11432 18.5 7.09351 18.7249C6.95851 20.0849 7.49851 20.7749 8.97851 20.9749C9.09221 21.0018 9.20742 21.0218 9.32351 21.0349C10.3235 21.2399 10.2135 21.2349 10.3985 20.3249C10.5235 19.7149 10.7685 19.5349 11.3985 19.6299C11.9087 19.6999 12.424 19.725 12.9385 19.7049C14.1735 19.7049 14.1785 19.7049 14.5135 20.8599C14.5735 21.0699 14.6185 21.2999 14.9135 21.2449C15.598 21.1801 16.2707 21.0238 16.9135 20.7799C17.1575 20.6973 17.3707 20.5427 17.5251 20.3366C17.6795 20.1304 17.7679 19.8823 17.7785 19.6249C17.6735 18.5599 18.0185 18.1249 18.6585 17.3299C18.7485 17.2249 18.9385 17.0399 19.0435 16.8899C19.2326 16.5895 19.4912 16.3391 19.7976 16.1598C20.104 15.9805 20.449 15.8777 20.8035 15.8599C21.4085 15.8299 21.6785 15.6449 21.6785 14.9499V12.8499C21.701 12.6327 21.637 12.4154 21.5003 12.245C21.3637 12.0747 21.1654 11.9651 20.9485 11.9399C20.6064 11.8717 20.2863 11.7201 20.0168 11.4986C19.7473 11.277 19.5366 10.9924 19.4035 10.6699C18.8721 9.62805 18.0531 8.76042 17.0435 8.16993M17.8585 13.5999C17.6219 13.5858 17.4006 13.4783 17.2431 13.3011C17.0856 13.124 17.0048 12.8916 17.0185 12.6549C17.0314 12.4223 17.136 12.2043 17.3094 12.0487C17.4828 11.8931 17.7109 11.8127 17.9435 11.8249C18.0648 11.8257 18.1846 11.8511 18.2958 11.8996C18.4069 11.9481 18.507 12.0187 18.5901 12.1071C18.6731 12.1955 18.7373 12.2998 18.7788 12.4137C18.8203 12.5277 18.8382 12.6489 18.8314 12.77C18.8246 12.8911 18.7933 13.0095 18.7394 13.1181C18.6854 13.2267 18.6099 13.3232 18.5175 13.4018C18.4252 13.4803 18.3178 13.5393 18.2019 13.5751C18.086 13.6108 17.9641 13.6227 17.8435 13.6099L17.8585 13.5999Z" stroke="white" stroke-linecap="round" stroke-linejoin="round"/>
<path id="Vector_2" d="M8.80357 7.41004C8.40026 7.14935 8.08649 6.77136 7.90452 6.32695C7.72254 5.88254 7.68108 5.39305 7.78572 4.92436C7.89036 4.45568 8.13607 4.0303 8.48979 3.7055C8.84351 3.38069 9.28825 3.17204 9.76413 3.10765C10.24 3.04326 10.7242 3.1262 11.1515 3.34533C11.5789 3.56445 11.9288 3.90923 12.1542 4.33325C12.3797 4.75727 12.4698 5.24018 12.4124 5.71697C12.3551 6.19376 12.1531 6.64154 11.8336 7.00004" stroke="white" stroke-linecap="round" stroke-linejoin="round"/>
</g>
</svg>
