<svg width="25" height="24" viewBox="0 0 25 24" fill="none" xmlns="http://www.w3.org/2000/svg">
<g id="streamline:interface-help-customer-support-1-customer-headset-help-microphone-phone-support">
<path id="Vector" d="M6.17672 12.0005V7.95453C6.18874 7.15923 6.35757 6.37412 6.67355 5.64418C6.98953 4.91424 7.44644 4.25383 8.0181 3.70077C8.58977 3.14771 9.26495 2.71288 10.005 2.4212C10.745 2.12952 11.5353 1.98671 12.3306 2.00097C13.1259 1.98671 13.9162 2.12952 14.6562 2.4212C15.3962 2.71288 16.0714 3.14771 16.643 3.70077C17.2147 4.25383 17.6716 4.91424 17.9876 5.64418C18.3036 6.37412 18.4724 7.15923 18.4844 7.95453V12.0005M15.4075 20.077C16.2235 20.077 17.0062 19.7529 17.5832 19.1758C18.1602 18.5988 18.4844 17.8163 18.4844 17.0002V13.5389M15.4075 20.077C15.4075 20.587 15.2049 21.0761 14.8442 21.4368C14.4836 21.7974 13.9944 22 13.4844 22H11.1767C10.6667 22 10.1775 21.7974 9.8169 21.4368C9.45625 21.0761 9.25364 20.587 9.25364 20.077C9.25364 19.567 9.45625 19.0779 9.8169 18.7173C10.1775 18.3566 10.6667 18.154 11.1767 18.154H13.4844C13.9944 18.154 14.4836 18.3566 14.8442 18.7173C15.2049 19.0779 15.4075 19.567 15.4075 20.077ZM3.86903 9.69291H5.40749C5.6115 9.69291 5.80716 9.77395 5.95142 9.9182C6.09568 10.0624 6.17672 10.2581 6.17672 10.4621V15.0773C6.17672 15.2813 6.09568 15.4769 5.95142 15.6212C5.80716 15.7654 5.6115 15.8465 5.40749 15.8465H3.86903C3.461 15.8465 3.06969 15.6844 2.78117 15.3959C2.49265 15.1074 2.33057 14.7161 2.33057 14.3081V11.2313C2.33057 10.8233 2.49265 10.432 2.78117 10.1435C3.06969 9.85499 3.461 9.69291 3.86903 9.69291ZM20.7921 15.8465H19.2536C19.0496 15.8465 18.854 15.7654 18.7097 15.6212C18.5655 15.4769 18.4844 15.2813 18.4844 15.0773V10.4621C18.4844 10.2581 18.5655 10.0624 18.7097 9.9182C18.854 9.77395 19.0496 9.69291 19.2536 9.69291H20.7921C21.2001 9.69291 21.5914 9.85499 21.88 10.1435C22.1685 10.432 22.3306 10.8233 22.3306 11.2313V14.3081C22.3306 14.7161 22.1685 15.1074 21.88 15.3959C21.5914 15.6844 21.2001 15.8465 20.7921 15.8465Z" stroke="white" stroke-linecap="round" stroke-linejoin="round"/>
</g>
</svg>
