<svg width="25" height="24" viewBox="0 0 25 24" fill="none" xmlns="http://www.w3.org/2000/svg">
<g id="real_estate_agent">
<path id="Vector" d="M15.3706 14.8898L15.3706 14.8898L15.3683 14.8889L9.77881 12.8048C9.59284 12.7355 9.39596 12.7 9.19748 12.7C8.27849 12.7 7.5335 13.445 7.5335 14.364V16.9585C7.5335 17.9924 8.22334 18.8992 9.21972 19.1751L14.1577 20.5425C14.5825 20.6601 15.0321 20.6532 15.4531 20.5226L19.7561 19.1874C20.1309 19.0711 20.4037 18.7698 20.4738 18.4555C20.5098 18.2946 20.497 18.0984 20.3688 17.9376C20.2385 17.7744 20.0392 17.71 19.8335 17.71H14.4835C13.9771 17.71 13.4791 17.6257 12.9984 17.4654L12.998 17.4653L11.5676 16.9905C11.2003 16.8686 11.0014 16.472 11.1231 16.1047C11.245 15.7372 11.6417 15.5382 12.0092 15.6601L13.439 16.1347L13.439 16.1347L13.4414 16.1355C13.5077 16.1569 13.5947 16.1711 13.6766 16.1819C13.7647 16.1935 13.8698 16.2039 13.9837 16.2134C14.2118 16.2322 14.4856 16.2479 14.7498 16.2605C15.1413 16.2791 15.5045 16.0892 15.6864 15.8242C15.779 15.6892 15.8443 15.5021 15.7875 15.3033C15.7288 15.0984 15.5645 14.9639 15.3706 14.8898ZM16.9353 14.3484C17.2863 14.7712 17.6947 15.2547 18.1621 15.6308C18.6312 16.0084 19.1866 16.3 19.8335 16.3C21.3278 16.3 22.5335 17.5057 22.5335 19C22.5335 19.4637 22.2321 19.8736 21.7895 20.0119L15.3067 22.0378C14.9945 22.1354 14.6608 22.1408 14.3456 22.0535L8.70184 20.4893C8.11441 20.3265 7.5335 20.7684 7.5335 21.3779C7.5335 21.5558 7.3893 21.7 7.21142 21.7H3.8335C2.89461 21.7 2.1335 20.9389 2.1335 20V13C2.1335 12.0611 2.89461 11.3 3.8335 11.3H9.4423C9.64533 11.3 9.84673 11.3364 10.0369 11.4074L15.8582 13.5809C15.8582 13.5809 15.8582 13.5809 15.8583 13.5809C16.2861 13.7414 16.654 14.0096 16.9353 14.3484ZM3.5335 19C3.5335 19.718 4.11553 20.3 4.8335 20.3C5.55147 20.3 6.1335 19.718 6.1335 19V14C6.1335 13.282 5.55147 12.7 4.8335 12.7C4.11553 12.7 3.5335 13.282 3.5335 14V19Z" fill="white" stroke="#5D55FF" stroke-width="0.6"/>
<path id="Vector_2" d="M21.6335 7.52924V13C21.6335 13.4418 21.2753 13.8 20.8335 13.8C20.3917 13.8 20.0335 13.4418 20.0335 13V8.54131C20.0335 7.82342 19.6832 7.15068 19.0951 6.739L16.0951 4.639C15.3376 4.10875 14.3294 4.10875 13.5719 4.639L10.1395 7.04163C9.82239 7.26365 9.6335 7.62644 9.6335 8.01358C9.6335 8.44614 9.27644 8.8 8.84033 8.8C8.39673 8.8 8.0335 8.44006 8.0335 8V7.34942C8.0335 6.88095 8.25974 6.44132 8.64094 6.16903L13.7873 2.49309C14.4131 2.04605 15.2539 2.04605 15.8797 2.49309L20.8797 6.06452C21.3528 6.4024 21.6335 6.94792 21.6335 7.52924ZM14.1335 9.5C14.1335 9.66569 13.9992 9.8 13.8335 9.8C13.6678 9.8 13.5335 9.66569 13.5335 9.5C13.5335 9.33431 13.6678 9.2 13.8335 9.2C13.9992 9.2 14.1335 9.33431 14.1335 9.5ZM16.1335 9.5C16.1335 9.66568 15.9992 9.8 15.8335 9.8C15.6678 9.8 15.5335 9.66569 15.5335 9.5C15.5335 9.33431 15.6678 9.2 15.8335 9.2C15.9992 9.2 16.1335 9.33431 16.1335 9.5ZM14.1335 7.5C14.1335 7.66569 13.9992 7.8 13.8335 7.8C13.6678 7.8 13.5335 7.66569 13.5335 7.5C13.5335 7.33431 13.6678 7.2 13.8335 7.2C13.9992 7.2 14.1335 7.33431 14.1335 7.5ZM16.1335 7.5C16.1335 7.66569 15.9992 7.8 15.8335 7.8C15.6678 7.8 15.5335 7.66569 15.5335 7.5C15.5335 7.33431 15.6678 7.2 15.8335 7.2C15.9992 7.2 16.1335 7.33431 16.1335 7.5Z" fill="white" stroke="#5D55FF" stroke-width="0.4"/>
</g>
</svg>
