<svg width="25" height="24" viewBox="0 0 25 24" fill="none" xmlns="http://www.w3.org/2000/svg">
<g id="carbon:time">
<path id="Vector" d="M12.3336 20.4001C10.6722 20.4001 9.04818 19.9074 7.66681 18.9844C6.28543 18.0614 5.20878 16.7495 4.57301 15.2146C3.93723 13.6797 3.77089 11.9908 4.095 10.3613C4.41912 8.7319 5.21914 7.23516 6.3939 6.0604C7.56866 4.88564 9.0654 4.08562 10.6948 3.7615C12.3243 3.43739 14.0132 3.60374 15.5481 4.23951C17.083 4.87529 18.3949 5.95194 19.3179 7.33331C20.2409 8.71468 20.7336 10.3387 20.7336 12.0001C20.7336 14.2279 19.8486 16.3645 18.2733 17.9398C16.698 19.5151 14.5614 20.4001 12.3336 20.4001ZM12.3336 4.8001C10.9096 4.8001 9.51752 5.22237 8.33349 6.01352C7.14946 6.80466 6.22661 7.92915 5.68166 9.24478C5.13671 10.5604 4.99413 12.0081 5.27194 13.4047C5.54976 14.8014 6.23549 16.0843 7.24243 17.0913C8.24936 18.0982 9.53228 18.7839 10.9289 19.0617C12.3256 19.3396 13.7733 19.197 15.0889 18.652C16.4045 18.1071 17.529 17.1842 18.3202 16.0002C19.1113 14.8162 19.5336 13.4241 19.5336 12.0001C19.5336 10.0905 18.775 8.25919 17.4248 6.90893C16.0745 5.55867 14.2432 4.8001 12.3336 4.8001Z" fill="white"/>
<path id="Vector_2" d="M14.0084 15.5999L11.1335 12.4695V7.19995H12.1621V12.0047L14.7335 14.8103L14.0084 15.5999Z" fill="white"/>
</g>
</svg>
