<svg width="25" height="24" viewBox="0 0 25 24" fill="none" xmlns="http://www.w3.org/2000/svg">
<g id="Huge-icon/ecommerce/outline/deposit">
<path id="Vector" d="M18.3335 11L18.3335 7L6.3335 7V19C6.3335 20.1046 7.22893 21 8.3335 21H16.3335C17.4381 21 18.3335 20.1046 18.3335 19V11ZM18.3335 11C20.5426 11 22.3335 9.20914 22.3335 7C22.3335 4.79086 20.5426 3 18.3335 3H6.3335C4.12436 3 2.3335 4.79086 2.3335 7C2.3335 9.20914 4.12436 11 6.3335 11" stroke="white" stroke-linejoin="round"/>
<path id="Vector_2" d="M14.3335 12.5858L13.0406 11.2929C12.6501 10.9024 12.0169 10.9024 11.6264 11.2929L10.3335 12.5858M12.3335 16.5858V11.5858" stroke="white" stroke-linecap="round"/>
</g>
</svg>
