<svg width="25" height="24" viewBox="0 0 25 24" fill="none" xmlns="http://www.w3.org/2000/svg">
<g id="receipt_long">
<path id="Vector" d="M19.6567 3.67678L19.8335 3.85355L20.0103 3.67678L21.0835 2.60355V19C21.0835 20.5219 19.8554 21.75 18.3335 21.75H6.3335C4.81157 21.75 3.5835 20.5219 3.5835 19V16.25H6.3335H6.5835V16V2.60355L7.65672 3.67678L7.8335 3.85355L8.01027 3.67678L9.3335 2.35355L10.6567 3.67678L10.8335 3.85355L11.0103 3.67678L12.3335 2.35355L13.6567 3.67678L13.8335 3.85355L14.0103 3.67678L15.3335 2.35355L16.6567 3.67678L16.8335 3.85355L17.0103 3.67678L18.3335 2.35355L19.6567 3.67678ZM15.3335 20.25H15.5835V20V18V17.75H15.3335H5.3335H5.0835V18V19C5.0835 19.6881 5.64542 20.25 6.3335 20.25H15.3335ZM8.0835 16V16.25H8.3335H17.0835V19C17.0835 19.6881 17.6454 20.25 18.3335 20.25C19.0216 20.25 19.5835 19.6881 19.5835 19V5V4.75H19.3335H8.3335H8.0835V5V16ZM9.5835 7.25H15.0835V8.75H9.5835V7.25ZM16.5835 8.75V7.25H18.0835V8.75H16.5835ZM9.5835 10.25H15.0835V11.75H9.5835V10.25ZM16.5835 11.75V10.25H18.0835V11.75H16.5835Z" fill="white" stroke="#5D55FF" stroke-width="0.5"/>
</g>
</svg>
