<svg width="25" height="24" viewBox="0 0 25 24" fill="none" xmlns="http://www.w3.org/2000/svg">
<g id="arcticons:budgetbakers-wallet">
<path id="Vector" d="M21.559 14.957V17.9035C21.559 18.4268 21.3511 18.9287 20.9811 19.2987C20.6111 19.6687 20.1093 19.8765 19.586 19.8765H4.5565C4.03331 19.8765 3.53155 19.6687 3.16155 19.2988C2.79156 18.9289 2.58363 18.4272 2.5835 17.904V6.09655C2.58343 5.83741 2.63442 5.58079 2.73354 5.34136C2.83266 5.10193 2.97798 4.88436 3.1612 4.7011C3.34441 4.51784 3.56194 4.37246 3.80135 4.27328C4.04075 4.1741 4.29736 4.12305 4.5565 4.12305H19.586C19.8451 4.12305 20.1017 4.1741 20.3411 4.27328C20.5806 4.37246 20.7981 4.51784 20.9813 4.7011C21.1645 4.88436 21.3098 5.10193 21.409 5.34136C21.5081 5.58079 21.5591 5.83741 21.559 6.09655V9.14555" stroke="white" stroke-linecap="round" stroke-linejoin="round"/>
<path id="Vector_2" d="M21.4805 14.9624H16.296C15.524 14.9624 14.7835 14.6557 14.2376 14.1098C13.6917 13.5639 13.385 12.8234 13.385 12.0514C13.3849 11.6691 13.4602 11.2905 13.6065 10.9372C13.7527 10.584 13.9671 10.263 14.2374 9.99268C14.5078 9.72232 14.8287 9.50785 15.1819 9.36153C15.5351 9.2152 15.9137 9.13989 16.296 9.13989H21.481C21.8135 9.13989 22.0835 9.40989 22.0835 9.74289V14.3599C22.0835 14.6924 21.8135 14.9624 21.4805 14.9624Z" stroke="white" stroke-linecap="round" stroke-linejoin="round"/>
<path id="Vector_3" d="M16.5625 13.4379C17.3094 13.4379 17.915 12.8324 17.915 12.0854C17.915 11.3384 17.3094 10.7329 16.5625 10.7329C15.8155 10.7329 15.21 11.3384 15.21 12.0854C15.21 12.8324 15.8155 13.4379 16.5625 13.4379Z" stroke="white" stroke-linecap="round" stroke-linejoin="round"/>
</g>
</svg>
