<svg width="25" height="24" viewBox="0 0 25 24" fill="none" xmlns="http://www.w3.org/2000/svg">
<g id="transform">
<path id="Vector" d="M8.1835 16V16.15H8.3335H22.1835V17.85H18.3335H18.1835V18V20V20.15H18.3335H19.9714L17.3335 22.7879L14.6956 20.15H16.3335H16.4835V20V18V17.85H16.3335H8.3335C7.31634 17.85 6.4835 17.0172 6.4835 16V8V7.85H6.3335H2.4835V6.15H6.3335H6.4835V6V4V3.85H6.3335H4.69563L7.3335 1.21213L9.97136 3.85H8.3335H8.1835V4V16ZM16.4835 8V7.85H16.3335H10.4835V6.15H16.3335C17.3507 6.15 18.1835 6.98284 18.1835 8V13.85H16.4835V8Z" fill="white" stroke="#5D55FF" stroke-width="0.3"/>
</g>
</svg>
